<svg width="79" height="78" viewBox="0 0 79 78" fill="none" xmlns="http://www.w3.org/2000/svg">
<path fill-rule="evenodd" clip-rule="evenodd" d="M0.5 39C0.5 17.4609 17.9609 0 39.5 0C61.0391 0 78.5 17.4609 78.5 39C78.5 60.5391 61.0391 78 39.5 78C17.9609 78 0.5 60.5391 0.5 39ZM20 39.4084C20 28.6744 28.7064 19.968 39.4403 19.968C50.1743 19.968 58.8807 28.6744 59 39.4084C59 47.9955 53.5137 55.2708 45.7614 57.8946C44.8073 58.0139 44.4495 57.4175 44.4495 56.9405V51.5735C44.4495 49.7845 43.8533 48.5919 43.1377 47.9955C47.4312 47.5185 51.9633 45.968 51.9633 38.4542C51.9633 36.3075 51.1284 34.5185 49.9358 33.2065C49.9452 33.1691 49.9583 33.122 49.9739 33.0659C50.1565 32.4072 50.6863 30.4958 49.6972 28.0781C49.6972 28.0781 48.0275 27.601 44.3302 30.1056C42.7799 29.7478 41.11 29.5093 39.4403 29.5093C37.7707 29.5093 36.101 29.6286 34.5505 30.1056C30.8532 27.601 29.1835 28.0781 29.1835 28.0781C28.1294 30.6548 28.8005 32.6564 28.938 33.0664L28.945 33.0873C27.633 34.5185 26.9174 36.1882 26.9174 38.335C26.9174 45.8487 31.4496 47.5185 35.7432 47.9955C35.2661 48.4726 34.6698 49.3075 34.5505 50.6194C33.4771 51.0964 30.734 51.9313 28.945 48.9497C28.945 48.9497 27.8716 47.0414 25.9633 46.9221C25.9633 46.9221 24.0551 46.9221 25.8441 48.1148C25.8441 48.1148 27.156 48.7111 27.9908 50.9772C27.9908 50.9772 29.1835 54.7937 34.5505 53.601V56.9405C34.5505 57.4175 34.1927 58.0139 33.2386 57.8946C25.6055 55.2708 20 47.9955 20 39.4084Z" fill="#45324F"/>
</svg>
