<svg width="79" height="78" viewBox="0 0 79 78" fill="none" xmlns="http://www.w3.org/2000/svg">
<path fill-rule="evenodd" clip-rule="evenodd" d="M0.5 39C0.5 17.4609 17.9609 0 39.5 0C61.0391 0 78.5 17.4609 78.5 39C78.5 60.5391 61.0391 78 39.5 78C17.9609 78 0.5 60.5391 0.5 39ZM20.4875 32.4188V58.5H28.775V32.4188H20.4875ZM20 24.1313C20 26.8125 21.95 28.7625 24.6313 28.7625C27.3125 28.7625 29.2625 26.8125 29.2625 24.1313C29.2625 21.45 27.3125 19.5 24.6313 19.5C22.1938 19.5 20 21.45 20 24.1313ZM50.7125 58.5H58.5125V42.4125C58.5125 34.3687 53.6375 31.6875 49.0062 31.6875C44.8625 31.6875 41.9375 34.3687 41.2062 36.075V32.4188H33.4062V58.5H41.6937V44.6063C41.6937 40.95 44.1312 39 46.5687 39C49.0062 39 50.7125 40.2188 50.7125 44.3625V58.5Z" fill="#45324F"/>
</svg>
